<svg width="50" height="50" viewBox="0 0 50 50" fill="none" xmlns="http://www.w3.org/2000/svg">
<rect width="50" height="50" rx="8" fill="#1FA45B"/>
<path d="M31.7577 21.39C32.2087 20.925 32.4877 20.282 32.4877 19.572C32.4877 18.862 32.2087 18.219 31.7577 17.754C31.5296 17.516 31.2558 17.3265 30.9527 17.1969C30.6496 17.0674 30.3234 17.0004 29.9937 17C29.9937 17 28.7497 16.997 27.4997 18.286C26.2497 16.997 25.0057 17 25.0057 17C24.6762 17.0004 24.3501 17.0673 24.047 17.1967C23.7439 17.3261 23.47 17.5153 23.2417 17.753C22.7907 18.219 22.5117 18.861 22.5117 19.571C22.5117 20.281 22.7907 20.925 23.2417 21.389L26.0305 24.409C26.8224 25.2665 28.1772 25.2666 28.9691 24.4092L31.7577 21.39Z" fill="white"/>
<path fill-rule="evenodd" clip-rule="evenodd" d="M31.726 27.02L28.5478 29.5619C28.1932 29.8455 27.7526 30 27.2986 30H23.5C23.2239 30 23 29.7761 23 29.5C23 29.2239 23.2239 29 23.5 29H27.065C27.1554 29 27.2442 28.9754 27.3218 28.9289C27.3993 28.8824 27.4629 28.8157 27.5055 28.736C27.5482 28.6563 27.5685 28.5664 27.5642 28.4761C27.5598 28.3858 27.5311 28.2983 27.481 28.223L26.593 26.891C26.4108 26.6168 26.1636 26.392 25.8735 26.2365C25.5833 26.081 25.2592 25.9998 24.93 26H19.5C19.2348 26 18.9804 26.1054 18.7929 26.2929C18.7667 26.3191 18.7275 26.3615 18.6767 26.4164C18.3637 26.755 17.6104 27.5698 16.75 28H14V33H16.25C17.5 33 18.6249 33.1249 19 33.5C19.3751 33.8751 19.9696 34 20.5 34H27.639C28.0666 34.0001 28.4893 33.9088 28.8787 33.7322C29.2682 33.5556 29.6153 33.2977 29.897 32.976L34.9064 28.0708C35.406 27.5816 35.2114 26.7371 34.548 26.516C34.073 26.3577 33.5658 26.3208 33.0729 26.4089C32.5799 26.4969 32.1169 26.707 31.726 27.02Z" fill="white"/>
</svg>
